<svg width="18" height="18" viewBox="0 0 18 18" fill="none" xmlns="http://www.w3.org/2000/svg">
<path d="M17.9231 0.511706C17.7782 0.179899 17.5274 0.0139728 17.1696 0.0137939H0.830034C0.472652 0.0137939 0.221505 0.179899 0.0768169 0.511706C-0.0677816 0.860504 -0.00826994 1.15855 0.25562 1.40527L6.54914 7.69861V13.9026C6.54914 14.1242 6.63002 14.3154 6.79166 14.4773L10.0594 17.745C10.2127 17.9066 10.4042 17.9877 10.634 17.9877C10.7361 17.9877 10.8424 17.9663 10.953 17.9238C11.2851 17.779 11.4511 17.528 11.4511 17.1706V7.69866L17.7444 1.40532C18.0084 1.1586 18.0678 0.860638 17.9231 0.511706Z" fill="#B70305"/>
</svg>
