<svg width="216" height="74" viewBox="0 0 216 74" fill="none" xmlns="http://www.w3.org/2000/svg">
<path d="M18.34 65.0377L21.4728 32.3528C17.9134 31.539 15.1071 28.7569 14.2677 25.2169L0.715918 28.5274L0 25.5648L14.015 22.6834C14.0921 20.3225 15.0247 18.1772 16.5137 16.5459L7.153 6.87778L8.05229 6.01223L17.4129 15.6802C19.0087 14.3312 21.0513 13.4916 23.2881 13.4131L24.5737 0L27.6168 0.284043L25.7048 13.6302C28.6482 14.2743 31.0869 16.2619 32.3415 18.9156L81.0933 8.89252L32.9639 20.6497C33.1541 21.4022 33.2551 22.1899 33.2551 23.0012C33.2551 25.4871 32.3068 27.7522 30.7513 29.4565L35.594 34.4582L34.6947 35.3238L29.8521 30.3222C28.1748 31.7401 26.0038 32.5954 23.6325 32.5954C23.4168 32.5954 23.2029 32.5883 22.9908 32.5744L18.34 65.0377Z" fill="#B70305"/>
<path d="M38.3151 63.2193H47.5831V42.1081C47.5831 41.5552 47.7336 41.1287 48.0346 40.8286C48.3198 40.5127 48.6446 40.3547 49.009 40.3547C49.3892 40.3547 49.7219 40.5127 50.0071 40.8286C50.2922 41.1287 50.4348 41.5552 50.4348 42.1081V63.2193H59.7029V42.2502C59.7029 41.6974 59.8534 41.2551 60.1544 40.9234C60.4712 40.5759 60.8277 40.4021 61.2238 40.4021C61.604 40.4021 61.9208 40.5443 62.1743 40.8286C62.4278 41.1129 62.5546 41.5394 62.5546 42.1081V63.2193H71.8464V40.5917C71.8464 38.7119 71.4899 37.006 70.777 35.4738C70.0482 33.9258 68.9867 32.7016 67.5926 31.8012C66.2142 30.9009 64.5824 30.4507 62.6971 30.4507C61.1446 30.4507 59.6553 30.8614 58.2295 31.6828C56.8036 32.5042 55.7105 33.602 54.95 34.9762C53.1915 31.9592 50.5774 30.4507 47.1078 30.4507C45.6186 30.4507 44.1928 30.8535 42.8303 31.6591C41.4836 32.4647 40.3905 33.5388 39.5508 34.8814C38.727 36.2399 38.3151 37.6773 38.3151 39.1937V63.2193Z" fill="#B70305"/>
<path d="M99.4841 52.8888C99.4841 50.5352 99.0009 48.3238 98.0345 46.2545C97.0523 44.1694 95.6343 42.503 93.7807 41.2551C91.943 40.0072 89.82 39.3833 87.4119 39.3833C85.384 39.3833 83.4354 39.9203 81.5659 40.9945C79.6965 42.0686 78.1914 43.5218 77.0507 45.3541C75.9259 47.1864 75.3635 49.1609 75.3635 51.2776C75.3635 53.0309 75.712 54.6816 76.4091 56.2296C77.1062 57.7618 78.0488 59.0808 79.237 60.1865C80.4411 61.2922 81.7956 62.1531 83.3007 62.7691C84.8058 63.3694 86.3425 63.6695 87.911 63.6695C90.6359 63.6695 93.0995 62.7533 95.3016 60.921L90.2874 54.9738C89.6061 55.8268 88.7269 56.2533 87.6496 56.2533C86.4613 56.2533 85.5345 55.7715 84.8691 54.808C84.2196 53.8286 83.8948 52.6676 83.8948 51.325C83.8948 49.9665 84.2354 48.7818 84.9167 47.7709C85.6138 46.7442 86.5564 46.2308 87.7446 46.2308C88.5526 46.2308 89.218 46.4598 89.7408 46.9179C90.2795 47.376 90.6201 47.992 90.7627 48.766H86.0098C85.7088 49.6664 85.5583 50.4404 85.5583 51.088C85.5583 51.6883 85.6771 52.2885 85.9148 52.8888H99.4841Z" fill="#B70305"/>
<path d="M115.572 53.647C114.955 53.9787 114.361 54.1445 113.79 54.1445C112.824 54.1445 112.071 53.8286 111.533 53.1968C110.994 52.565 110.725 51.8146 110.725 50.9459C110.725 50.0455 111.002 49.2715 111.556 48.6239C112.095 47.9604 112.84 47.6287 113.79 47.6287C114.852 47.6287 115.644 47.992 116.167 48.7187C116.689 49.4295 116.951 50.314 116.951 51.3724V60.921C116.951 62.5164 116.396 63.7485 115.287 64.6172C114.178 65.5018 112.871 65.9441 111.366 65.9441C110.321 65.9441 109.33 65.7387 108.396 65.328V73.1944C109.679 73.7315 111.105 74 112.673 74C114.891 74 117.014 73.4156 119.042 72.2467C121.07 71.0778 122.702 69.4903 123.937 67.4842C125.189 65.4781 125.815 63.2904 125.815 60.921V51.3724C125.815 49.1925 125.26 47.1864 124.151 45.3541C123.042 43.506 121.553 42.0528 119.684 40.9945C117.814 39.9203 115.802 39.3833 113.648 39.3833C111.62 39.3833 109.687 39.9124 107.849 40.9708C106.011 42.0133 104.538 43.4349 103.429 45.2357C102.32 47.0364 101.765 48.9714 101.765 51.0406C101.765 52.9678 102.185 54.808 103.025 56.5613C103.849 58.2989 105.029 59.6968 106.566 60.7551C108.103 61.8135 109.877 62.3426 111.889 62.3426C112.903 62.3426 114.131 62.1294 115.572 61.7029V53.647Z" fill="#B70305"/>
<path d="M143.163 54.4763C142.608 54.9975 141.848 55.2582 140.881 55.2582C139.899 55.2108 139.139 54.8712 138.6 54.2393C138.077 53.6075 137.816 52.8651 137.816 52.0121C137.816 51.1275 138.101 50.3456 138.671 49.6664C139.242 48.9872 140.026 48.6476 141.024 48.6476C142.038 48.6476 142.83 49.0267 143.4 49.7849C143.987 50.5273 144.28 51.3961 144.28 52.3912V63.2193H153.144V51.4671C153.144 49.2873 152.597 47.2654 151.504 45.4015C150.411 43.5376 148.93 42.0686 147.06 40.9945C145.191 39.9203 143.179 39.3833 141.024 39.3833C138.949 39.3833 136.976 39.9045 135.107 40.9471C133.253 41.9896 131.764 43.4191 130.639 45.2357C129.514 47.0364 128.952 49.0188 128.952 51.1828C128.952 53.5364 129.522 55.6688 130.663 57.5802C131.803 59.4915 133.332 60.9684 135.249 62.0109C137.15 63.085 139.218 63.6221 141.452 63.6221C141.816 63.6221 142.386 63.5905 143.163 63.5273V54.4763Z" fill="#B70305"/>
<path d="M180.52 52.8888C180.52 50.5352 180.037 48.3238 179.07 46.2545C178.088 44.1694 176.67 42.503 174.817 41.2551C172.979 40.0072 170.856 39.3833 168.448 39.3833C166.42 39.3833 164.471 39.9203 162.602 40.9945C160.732 42.0686 159.227 43.5218 158.087 45.3541C156.962 47.1864 156.399 49.1609 156.399 51.2776C156.399 53.0309 156.748 54.6816 157.445 56.2296C158.142 57.7618 159.085 59.0808 160.273 60.1865C161.477 61.2922 162.832 62.1531 164.337 62.7691C165.842 63.3694 167.378 63.6695 168.947 63.6695C171.672 63.6695 174.135 62.7533 176.338 60.921L171.323 54.9738C170.642 55.8268 169.763 56.2533 168.685 56.2533C167.497 56.2533 166.57 55.7715 165.905 54.808C165.256 53.8286 164.931 52.6676 164.931 51.325C164.931 49.9665 165.271 48.7818 165.953 47.7709C166.65 46.7442 167.592 46.2308 168.781 46.2308C169.589 46.2308 170.254 46.4598 170.777 46.9179C171.315 47.376 171.656 47.992 171.799 48.766H167.046C166.745 49.6664 166.594 50.4404 166.594 51.088C166.594 51.6883 166.713 52.2885 166.951 52.8888H180.52Z" fill="#B70305"/>
<path d="M216 63.2193V49.927C216 48.458 215.802 47.0917 215.406 45.828C215.026 44.5643 214.439 43.4428 213.647 42.4635C212.855 41.4841 211.881 40.7259 210.724 40.1889C209.568 39.6518 208.245 39.3833 206.756 39.3833C204.522 39.3833 202.28 40.4653 200.03 42.6293C197.86 40.4653 195.492 39.3833 192.925 39.3833C191.357 39.3833 189.899 39.8098 188.552 40.6627C187.19 41.4999 186.113 42.6214 185.32 44.0273C184.528 45.4173 184.132 46.8942 184.132 48.458V63.2193H192.687V51.1354C192.687 49.4769 193.155 48.616 194.089 48.5528C195.072 48.5528 195.563 49.4137 195.563 51.1354V63.2193H204.237V51.1354C204.237 49.4926 204.736 48.6318 205.734 48.5528C206.7 48.5528 207.183 49.4137 207.183 51.1354V63.2193H216Z" fill="#B70305"/>
</svg>
