<?xml version="1.0" encoding="utf-8"?>
<!-- Generator: Adobe Illustrator 22.1.0, SVG Export Plug-In . SVG Version: 6.00 Build 0)  -->
<svg version="1.1" id="Слой_1" xmlns="http://www.w3.org/2000/svg" xmlns:xlink="http://www.w3.org/1999/xlink" x="0px" y="0px"
	 viewBox="0 0 320 320" style="enable-background:new 0 0 320 320;" xml:space="preserve">
<style type="text/css">
	.st0{fill:#FFFFFF;}
	.st1{fill:#BC0000;}
</style>
<path class="st0" d="M288,299.9H32.4c-5.5,0-10-4.5-10-10V34.3c0-5.5,4.5-10,10-10H288c5.5,0,10,4.5,10,10v255.5
	C298,295.4,293.5,299.9,288,299.9z"/>
<path class="st0" d="M287.8,295.1H32.2c-5.5,0-10-4.5-10-10V29.5c0-5.5,4.5-10,10-10h255.5c5.5,0,10,4.5,10,10V285
	C297.8,290.6,293.3,295.1,287.8,295.1z"/>
<path class="st1" d="M128.9,149.6c0.6,22.4,9.3,41.9,23,59.3c0.3,0.4,0.8,0.7,1.5,1.3c2.3-6.6,4.4-12.8,6.6-19.1
	c7.4-21.9,14.9-43.8,22.3-65.8c0.9-2.7,2-3.8,5.1-3.8c14.3,0.2,28.5,0.1,42.8,0.1c1.2,0,2.4,0.1,4,0.2
	c-22.7,55.1-45.2,109.8-67.8,164.7c-0.9-0.4-1.6-0.5-2.1-0.9c-28.4-19.7-52.5-43.4-69.5-73.8c0,0-45.5-94.6,69.7-147.7
	C164.4,64.2,127.2,99.9,128.9,149.6z"/>
<path class="st1" d="M134.3,71.3c0,0,20.9-22.8,63.5-34.4c0,0-17.4,37.3-44.8,57.5c0,0,17-24,18.1-34.1
	C171.1,60.4,150.2,56.2,134.3,71.3z"/>
</svg>
