<svg width="24" height="25" viewBox="0 0 24 25" fill="none" xmlns="http://www.w3.org/2000/svg">
<g clip-path="url(#clip0)">
<path d="M12 19.0257C9.30117 19.0257 6.39656 17.9702 3.60022 15.9733C1.5098 14.4805 0.219564 13.0016 0.16565 12.9393C-0.0552167 12.6843 -0.0552167 12.3058 0.16565 12.0507C0.219564 11.9885 1.50975 10.5094 3.60022 9.01669C6.39662 7.01993 9.30122 5.96436 12 5.96436C14.6988 5.96436 17.6035 7.01988 20.3998 9.01669C22.4902 10.5094 23.7804 11.9884 23.8344 12.0507C24.0552 12.3057 24.0552 12.6842 23.8344 12.9393C23.7804 13.0015 22.4903 14.4805 20.3998 15.9733C17.6035 17.9702 14.6989 19.0257 12 19.0257ZM1.60916 12.4951C2.13092 13.0271 3.11565 13.9626 4.41582 14.8879C6.19828 16.1562 8.96096 17.6683 12 17.6683C15.039 17.6683 17.8018 16.1562 19.5842 14.8879C20.8842 13.9628 21.869 13.0272 22.3908 12.4951C21.8691 11.9631 20.8844 11.0275 19.5842 10.1023C17.8018 8.83389 15.039 7.32181 12 7.32181C8.96096 7.32181 6.19828 8.83389 4.41582 10.1023C3.11581 11.0274 2.13103 11.9629 1.60916 12.4951Z" fill="#B70305"/>
<path d="M12 16.7029C9.6798 16.7029 7.79222 14.8153 7.79222 12.4952C7.79222 10.175 9.6798 8.28741 12 8.28741C13.0204 8.28741 14.0047 8.65737 14.7716 9.3292C15.0535 9.57618 15.0819 10.0049 14.8349 10.2869C14.5879 10.5688 14.1591 10.5971 13.8772 10.3502C13.3579 9.89527 12.6912 9.64476 11.9999 9.64476C10.4282 9.64476 9.14951 10.9235 9.14951 12.4952C9.14951 14.0669 10.4282 15.3456 11.9999 15.3456C13.5717 15.3456 14.8504 14.0669 14.8504 12.4952C14.8504 12.1204 15.1542 11.8165 15.529 11.8165C15.9038 11.8165 16.2077 12.1204 16.2077 12.4952C16.2078 14.8153 14.3202 16.7029 12 16.7029Z" fill="#B70305"/>
<path d="M12 13.8525C11.2515 13.8525 10.6426 13.2436 10.6426 12.4952C10.6426 11.7467 11.2515 11.1378 12 11.1378C12.7485 11.1378 13.3573 11.7467 13.3573 12.4952C13.3573 13.2436 12.7485 13.8525 12 13.8525Z" fill="#B70305"/>
</g>
<defs>
<clipPath id="clip0">
<rect width="24" height="24" fill="white" transform="translate(0 0.495117)"/>
</clipPath>
</defs>
</svg>
