<svg width="20" height="19" viewBox="0 0 20 19" fill="none" xmlns="http://www.w3.org/2000/svg">
<path fill-rule="evenodd" clip-rule="evenodd" d="M14.5 0.0932617C12.76 0.0932617 11.09 0.903262 10 2.18326C8.91 0.903262 7.24 0.0932617 5.5 0.0932617C2.42 0.0932617 0 2.51326 0 5.59326C0 9.37326 3.4 12.4533 8.55 17.1333L10 18.4433L11.45 17.1233C16.6 12.4533 20 9.37326 20 5.59326C20 2.51326 17.58 0.0932617 14.5 0.0932617ZM10.1 15.6433L10 15.7433L9.9 15.6433C5.14 11.3333 2 8.48326 2 5.59326C2 3.59326 3.5 2.09326 5.5 2.09326C7.04 2.09326 8.54 3.08326 9.07 4.45326H10.94C11.46 3.08326 12.96 2.09326 14.5 2.09326C16.5 2.09326 18 3.59326 18 5.59326C18 8.48326 14.86 11.3333 10.1 15.6433Z" fill="#B70305"/>
</svg>
